<svg xmlns="http://www.w3.org/2000/svg" width="32" height="33" viewBox="0 0 32 33" fill="none">
  <path d="M0 1.625C0 1.00368 0.50368 0.5 1.125 0.5H30.875C31.4963 0.5 32 1.00368 32 1.625V31.375C32 31.9963 31.4963 32.5 30.875 32.5H1.125C0.50368 32.5 0 31.9963 0 31.375V1.625Z" fill="#CCCBCB"/>
  <path d="M23.6154 8.88477H8.38462C8.01739 8.88477 7.66521 9.03064 7.40554 9.29031C7.14588 9.54998 7 9.90216 7 10.2694V22.7309C7 23.0981 7.14588 23.4503 7.40554 23.71C7.66521 23.9697 8.01739 24.1155 8.38462 24.1155H23.6154C23.9826 24.1155 24.3348 23.9697 24.5945 23.71C24.8541 23.4503 25 23.0981 25 22.7309V10.2694C25 9.90216 24.8541 9.54998 24.5945 9.29031C24.3348 9.03064 23.9826 8.88477 23.6154 8.88477ZM18.4231 13.0386C18.6285 13.0386 18.8292 13.0995 19 13.2136C19.1708 13.3277 19.3039 13.4899 19.3825 13.6797C19.4611 13.8694 19.4817 14.0782 19.4416 14.2797C19.4015 14.4811 19.3026 14.6661 19.1574 14.8114C19.0121 14.9566 18.8271 15.0555 18.6257 15.0956C18.4242 15.1357 18.2154 15.1151 18.0257 15.0365C17.8359 14.9579 17.6737 14.8248 17.5596 14.654C17.4455 14.4832 17.3846 14.2825 17.3846 14.0771C17.3846 13.8017 17.494 13.5375 17.6888 13.3428C17.8835 13.148 18.1477 13.0386 18.4231 13.0386ZM23.6154 22.7309H8.38462V19.3291L12.3948 15.318C12.4591 15.2537 12.5355 15.2026 12.6195 15.1678C12.7035 15.1329 12.7936 15.115 12.8846 15.115C12.9756 15.115 13.0657 15.1329 13.1497 15.1678C13.2338 15.2026 13.3101 15.2537 13.3744 15.318L19.2019 21.1438C19.3318 21.2737 19.508 21.3467 19.6917 21.3467C19.8754 21.3467 20.0516 21.2737 20.1815 21.1438C20.3114 21.0139 20.3844 20.8377 20.3844 20.654C20.3844 20.4703 20.3114 20.2941 20.1815 20.1642L18.6533 18.6368L19.8942 17.395C20.0241 17.2652 20.2001 17.1923 20.3836 17.1923C20.5671 17.1923 20.7432 17.2652 20.873 17.395L23.6154 20.1408V22.7309Z" fill="#FAFAFA"/>
</svg>