<svg width="19" height="19" viewBox="0 0 19 19" fill="none" xmlns="http://www.w3.org/2000/svg">
<rect width="19" height="19" fill="#3D3D3D"/>
<g id="Frame 11726" clip-path="url(#clip0_1_3)">
<rect width="1920" height="1080" transform="translate(-993 -636)" fill="white"/>
<g id="Frame 11781">
<g id="Frame 11778">
<rect x="-277.5" y="-409" width="489" height="519" rx="3.5" stroke="#DBDADE"/>
<g id="Frame 11775">
<g id="Frame 11776">
<g id="Frame 11774">
<rect x="-22.5" y="-12" width="194" height="43" rx="3.5" fill="#E3E3E3"/>
<rect x="-22.5" y="-12" width="194" height="43" rx="3.5" stroke="#DBDADE"/>
<g id="icons8-facebook">
<mask id="mask0_1_3" style="mask-type:luminance" maskUnits="userSpaceOnUse" x="0" y="0" width="19" height="19">
<rect id="Background" x="0.5" y="0.5" width="18" height="18" fill="white"/>
</mask>
<g mask="url(#mask0_1_3)">
<path id="Shape" fill-rule="evenodd" clip-rule="evenodd" d="M9.5 2.375C5.56498 2.375 2.37501 5.56496 2.375 9.49998C2.37499 13.435 5.56494 16.625 9.49997 16.625C13.435 16.625 16.625 13.4351 16.625 9.50003C16.625 5.56501 13.4351 2.37503 9.50004 2.375H9.5Z" fill="#0866FF"/>
<path id="Shape_2" fill-rule="evenodd" clip-rule="evenodd" d="M10.465 11.3889H12.3089L12.5984 9.51578H10.4646V8.49203C10.4646 7.71391 10.7189 7.02391 11.4467 7.02391H12.6164V5.38928C12.4109 5.36153 11.9762 5.30078 11.155 5.30078C9.44012 5.30078 8.43475 6.20641 8.43475 8.26966V9.51578H6.67188V11.3889H8.43475V16.5373C8.78387 16.5898 9.1375 16.6254 9.5005 16.6254C9.82862 16.6254 10.1489 16.5954 10.465 16.5527V11.3889Z" fill="white"/>
</g>
</g>
</g>
</g>
</g>
</g>
</g>
</g>
<defs>
<clipPath id="clip0_1_3">
<rect width="1920" height="1080" fill="white" transform="translate(-993 -636)"/>
</clipPath>
</defs>
</svg>
