<svg width="18" height="19" viewBox="0 0 18 19" fill="none" xmlns="http://www.w3.org/2000/svg">
<mask id="mask0_872_30411" style="mask-type:luminance" maskUnits="userSpaceOnUse" x="0" y="0" width="18" height="19">
<rect y="0.5" width="18" height="18" fill="white"/>
</mask>
<g mask="url(#mask0_872_30411)">
<path fill-rule="evenodd" clip-rule="evenodd" d="M16.3541 8.03113H15.75V8H9V11H13.2386C12.6203 12.7464 10.9586 14 9 14C6.51488 14 4.5 11.9851 4.5 9.5C4.5 7.01488 6.51488 5 9 5C10.1471 5 11.1908 5.43275 11.9854 6.13963L14.1067 4.01825C12.7673 2.76987 10.9755 2 9 2C4.85813 2 1.5 5.35813 1.5 9.5C1.5 13.6419 4.85813 17 9 17C13.1419 17 16.5 13.6419 16.5 9.5C16.5 8.99713 16.4482 8.50625 16.3541 8.03113Z" fill="#FFC107"/>
<path fill-rule="evenodd" clip-rule="evenodd" d="M2.36523 6.00912L4.82936 7.81625C5.49611 6.1655 7.11086 5 9.00049 5C10.1476 5 11.1912 5.43275 11.9859 6.13962L14.1072 4.01825C12.7677 2.76987 10.976 2 9.00049 2C6.11974 2 3.62148 3.62637 2.36523 6.00912Z" fill="#FF3D00"/>
<path fill-rule="evenodd" clip-rule="evenodd" d="M8.99914 16.9993C10.9364 16.9993 12.6966 16.2579 14.0275 15.0523L11.7063 13.088C10.9533 13.6584 10.0173 13.9993 8.99914 13.9993C7.04839 13.9993 5.39201 12.7554 4.76802 11.0195L2.32227 12.9039C3.56352 15.3328 6.08426 16.9993 8.99914 16.9993Z" fill="#4CAF50"/>
<path fill-rule="evenodd" clip-rule="evenodd" d="M16.3541 8.03113H15.75V8H9V11H13.2386C12.9416 11.8389 12.402 12.5623 11.706 13.0891C11.7064 13.0888 11.7068 13.0887 11.7071 13.0884L14.0284 15.0526C13.8641 15.2019 16.5 13.25 16.5 9.5C16.5 8.99713 16.4482 8.50625 16.3541 8.03113Z" fill="#1976D2"/>
</g>
</svg>
