<svg width="25" height="24" viewBox="0 0 25 24" fill="none" xmlns="http://www.w3.org/2000/svg">
<g id="Social icons/ic_twitter">
<path id="Icon" fill-rule="evenodd" clip-rule="evenodd" d="M19.4 7.82054C18.8702 8.06193 18.3013 8.22485 17.7031 8.29731C18.313 7.92254 18.7815 7.32901 19.0026 6.62193C18.4314 6.96854 17.7994 7.22147 17.1265 7.3567C16.5872 6.76824 15.8194 6.40039 14.9691 6.40039C13.3374 6.40039 12.0155 7.75639 12.0155 9.42947C12.0155 9.6667 12.0411 9.89839 12.0915 10.1199C9.63616 9.99347 7.45941 8.78747 6.00195 6.9547C5.74809 7.40239 5.60225 7.92254 5.60225 8.47778C5.60225 9.52916 6.12393 10.4559 6.91613 10.9996C6.43226 10.9835 5.97674 10.8478 5.57839 10.6207C5.57794 10.6332 5.57794 10.6465 5.57794 10.6585C5.57794 12.1267 6.5961 13.3512 7.94779 13.6295C7.70023 13.6982 7.43916 13.7356 7.16954 13.7356C6.97869 13.7356 6.79415 13.7167 6.6141 13.6816C6.9895 14.8844 8.08102 15.7604 9.37329 15.7853C8.36279 16.5976 7.08897 17.0827 5.70488 17.0827C5.46632 17.0827 5.23091 17.0684 5 17.0402C6.30713 17.8987 7.86001 18.4004 9.52858 18.4004C14.9623 18.4004 17.9344 13.7845 17.9344 9.78116C17.9344 9.65008 17.9308 9.51901 17.9254 9.38885C18.5029 8.96193 19.0035 8.42885 19.4 7.82054Z" fill="#CCCBCB"/>
</g>
</svg>
