<svg width="167" height="31" viewBox="0 0 167 31" fill="none" xmlns="http://www.w3.org/2000/svg">
<rect width="167" height="31" fill="#3D3D3D"/>
<g id="Frame 11726" clip-path="url(#clip0_1_3)">
<rect width="1920" height="1080" transform="translate(-249 -23)" fill="white"/>
<g id="Navber">
<rect width="1920" height="77" transform="translate(-249.156 -23)" fill="white"/>
<g id="Frame 3">
<g id="Color" clip-path="url(#clip1_1_3)">
<path id="Vector" d="M12.1478 8.10657C14.1337 8.08353 16.088 8.60429 17.7991 9.61244C19.4742 10.5936 20.8708 11.9865 21.8564 13.659C22.8641 15.3591 23.3861 17.3031 23.3654 19.2793C23.3748 20.7753 23.0784 22.2575 22.4943 23.6348C21.3516 26.3312 19.2071 28.4789 16.5125 29.6258C15.1326 30.2121 13.647 30.5086 12.1478 30.4969C10.9084 30.5207 9.68566 30.2085 8.6094 29.5934C7.59294 29.002 6.71334 28.2019 6.02857 27.2458V30.4969H0.84375V0.5H6.02857V11.3562C6.71418 10.4008 7.5936 9.60088 8.6094 9.00855C9.68608 8.39462 10.9086 8.08298 12.1478 8.10657ZM12.0829 25.4851C13.1447 25.4972 14.1878 25.2063 15.09 24.6464C15.9869 24.0921 16.7304 23.3215 17.2523 22.4054C18.0617 20.9878 18.2886 19.3111 17.8851 17.7294C17.4817 16.1476 16.4795 14.7845 15.09 13.9277C14.1882 13.3774 13.1502 13.0906 12.0937 13.0999C11.0649 13.0825 10.0546 13.3741 9.19321 13.937C8.34117 14.499 7.65235 15.2757 7.1962 16.1888C6.71105 17.1456 6.46314 18.2051 6.47338 19.2778C6.45964 20.3652 6.70754 21.44 7.1962 22.4116C7.6509 23.3228 8.34023 24.0963 9.19321 24.6526C10.053 25.2096 11.0586 25.4992 12.0829 25.4851Z" fill="#2D2E54"/>
<path id="Vector_2" d="M42.8266 0.5H48.0099V30.5H42.8266V27.2921C42.1468 28.241 41.2695 29.0313 40.2551 29.6088C39.1588 30.2204 37.9192 30.5285 36.6642 30.5015C35.175 30.5128 33.6995 30.2162 32.3304 29.6305C29.6485 28.4786 27.5112 26.3413 26.3594 23.6595C25.7844 22.287 25.4883 20.8138 25.4883 19.3257C25.4883 17.8376 25.7844 16.3644 26.3594 14.9919C27.5124 12.3109 29.6494 10.1739 32.3304 9.0209C33.6995 8.43515 35.175 8.13859 36.6642 8.14981C37.9178 8.12381 39.1562 8.42794 40.2551 9.03171C41.2742 9.60666 42.1526 10.4012 42.8266 11.3577V0.5ZM36.729 25.5067C37.7676 25.527 38.7888 25.239 39.6636 24.6789C40.5161 24.1203 41.2043 23.3446 41.6575 22.4316C42.1333 21.4593 42.3806 20.3912 42.3806 19.3087C42.3806 18.2262 42.1333 17.158 41.6575 16.1857C41.2011 15.2723 40.5076 14.4983 39.6496 13.9447C38.7786 13.3876 37.7629 13.0992 36.729 13.1153C35.6727 13.1062 34.6357 13.3994 33.7405 13.9602C32.8301 14.5282 32.0797 15.319 31.5602 16.2578C31.0406 17.1967 30.7691 18.2525 30.7712 19.3255C30.7734 20.3985 31.0492 21.4532 31.5725 22.39C32.0959 23.3267 32.8495 24.1145 33.7621 24.6789C34.653 25.2295 35.6817 25.5165 36.729 25.5067Z" fill="#2D2E54"/>
<path id="Vector_3" d="M79.0664 9.3457H50.6758V30.5005H79.0664V9.3457Z" fill="#2D2E54"/>
<path id="Vector_4" d="M50.6758 9.34593L53.9547 5.08008H57.8005L55.7849 9.34593H50.6758Z" fill="#F15A3A"/>
<path id="Vector_5" d="M62.8697 5.08008L62.1855 9.34593H55.7852L57.8007 5.08008H62.8697Z" fill="white"/>
<path id="Vector_6" d="M79.0665 9.34593L75.7876 5.08008H71.9434L73.9574 9.34593H79.0665Z" fill="#F15A3A"/>
<path id="Vector_7" d="M66.873 5.08008L67.5588 9.34593H73.9576L71.9436 5.08008H66.873Z" fill="white"/>
<path id="Vector_8" d="M67.5573 9.34593L66.873 5.08008H62.8698L62.1855 9.34593H67.5573Z" fill="#F15A3A"/>
<path id="Vector_9" d="M73.957 9.67383H79.0662V13.1644C79.0662 13.4101 78.9685 13.6458 78.7948 13.8196C78.621 13.9934 78.3853 14.091 78.1395 14.091H74.8853C74.6395 14.091 74.4038 13.9934 74.23 13.8196C74.0562 13.6458 73.9586 13.4101 73.9586 13.1644V9.67383H73.957Z" fill="white"/>
<path id="Vector_10" d="M50.6758 9.67383H55.7849V13.1644C55.7849 13.4101 55.6873 13.6458 55.5135 13.8196C55.3397 13.9934 55.104 14.091 54.8582 14.091H51.6025C51.3567 14.091 51.121 13.9934 50.9472 13.8196C50.7734 13.6458 50.6758 13.4101 50.6758 13.1644V9.67383Z" fill="white"/>
<path id="Vector_11" d="M62.1855 9.67383H67.565V13.1644C67.565 13.4101 67.4673 13.6458 67.2936 13.8196C67.1198 13.9934 66.8841 14.091 66.6383 14.091H63.1122C62.8665 14.091 62.6308 13.9934 62.457 13.8196C62.2832 13.6458 62.1855 13.4101 62.1855 13.1644V9.67383Z" fill="white"/>
<path id="Vector_12" d="M67.5655 9.67383H73.9658V13.1644C73.9658 13.4101 73.8682 13.6458 73.6944 13.8196C73.5206 13.9934 73.2849 14.091 73.0391 14.091H68.4814C68.2356 14.091 67.9999 13.9934 67.8261 13.8196C67.6523 13.6458 67.5547 13.4101 67.5547 13.1644V9.67383H67.5655Z" fill="white"/>
<path id="Vector_13" d="M55.7847 9.67383H62.1851V13.1644C62.1851 13.4101 62.0874 13.6458 61.9137 13.8196C61.7399 13.9934 61.5042 14.091 61.2584 14.091H56.7099C56.4641 14.091 56.2284 13.9934 56.0546 13.8196C55.8808 13.6458 55.7832 13.4101 55.7832 13.1644V9.67383H55.7847Z" fill="white"/>
<path id="Vector_14" d="M73.9578 9.3457H79.0669V12.7327C79.0669 13.0047 78.9589 13.2656 78.7665 13.4579C78.5742 13.6502 78.3134 13.7583 78.0414 13.7583H74.9787C74.7067 13.7583 74.4458 13.6502 74.2535 13.4579C74.0612 13.2656 73.9531 13.0047 73.9531 12.7327V9.3457H73.9578Z" fill="#CA4B33"/>
<path id="Vector_15" d="M50.6757 9.3457H55.7848V12.6154C55.7848 12.9185 55.6644 13.2092 55.4501 13.4235C55.2357 13.6379 54.945 13.7583 54.6419 13.7583H51.8109C51.5078 13.7583 51.2171 13.6379 51.0027 13.4235C50.7884 13.2092 50.668 12.9185 50.668 12.6154V9.3457H50.6757Z" fill="#CA4B33"/>
<path id="Vector_16" d="M62.1855 9.3457H67.565V12.654C67.565 12.9469 67.4486 13.2277 67.2415 13.4348C67.0344 13.6419 66.7535 13.7583 66.4607 13.7583H63.2898C62.997 13.7583 62.7161 13.6419 62.509 13.4348C62.3019 13.2277 62.1855 12.9469 62.1855 12.654V9.3457Z" fill="#CA4B33"/>
<path id="Vector_17" d="M67.5648 9.3457H73.9651V12.6602C73.9651 12.951 73.8496 13.2299 73.6439 13.4356C73.4383 13.6412 73.1594 13.7567 72.8685 13.7567H68.6552C68.3643 13.7567 68.0854 13.6412 67.8798 13.4356C67.6741 13.2299 67.5586 12.951 67.5586 12.6602V9.3457H67.5648Z" fill="#E0E1E0"/>
<path id="Vector_18" d="M55.7852 9.3457H62.1855V12.5891C62.1855 12.9008 62.0617 13.1998 61.8412 13.4202C61.6208 13.6406 61.3219 13.7645 61.0101 13.7645H56.9605C56.8062 13.7645 56.6533 13.7341 56.5107 13.675C56.3681 13.6159 56.2385 13.5294 56.1294 13.4202C56.0203 13.3111 55.9337 13.1815 55.8746 13.0389C55.8156 12.8963 55.7852 12.7435 55.7852 12.5891V9.3457Z" fill="#E0E1E0"/>
<path id="Vector_19" d="M54.891 2.98438H74.8519C75.1001 2.98437 75.3382 3.08298 75.5137 3.25851C75.6893 3.43404 75.7879 3.6721 75.7879 3.92033V5.07715H53.9551V3.92033C53.9551 3.6721 54.0537 3.43404 54.2292 3.25851C54.4047 3.08298 54.6428 2.98438 54.891 2.98438Z" fill="#F15A3A"/>
<path id="Vector_20" d="M72.3134 2.32031H57.4307C57.1557 2.32139 56.884 2.3812 56.6339 2.49573C56.3838 2.61026 56.161 2.77688 55.9805 2.98444H73.7652C73.5843 2.77684 73.3613 2.61021 73.1109 2.49569C72.8606 2.38116 72.5887 2.32137 72.3134 2.32031Z" fill="#2D2E54"/>
<path id="Vector_21" d="M69.8829 15.8415L70.232 16.189L68.8898 17.5095C67.7515 16.5974 66.3454 16.0839 64.8871 16.048C63.4289 16.0121 61.9992 16.4558 60.8174 17.3108C59.6357 18.1659 58.7671 19.3852 58.3452 20.7815C57.9232 22.1778 57.9711 23.674 58.4815 25.0404L56.6992 26.6745L58.2993 28.429L59.7279 27.1193C60.4953 27.9851 61.475 28.636 62.5704 29.008C63.6659 29.3799 64.8394 29.4602 65.9752 29.2407C67.1111 29.0212 68.1702 28.5096 69.0483 27.7563C69.9263 27.003 70.593 26.034 70.9826 24.9447L68.1593 25.2335C67.806 25.7155 67.3555 26.118 66.8369 26.415C66.3183 26.7119 65.7431 26.8968 65.1486 26.9575C64.5541 27.0182 63.9534 26.9534 63.3855 26.7674C62.8176 26.5814 62.295 26.2782 61.8516 25.8775C61.7235 25.7622 61.6028 25.639 61.4902 25.5084L62.6825 24.4149L63.9475 25.7076L71.9124 17.8725L72.2645 18.2231L73.0537 15.2129L69.8829 15.8415ZM63.983 22.336L62.7752 21.1005L60.4616 23.2148C60.4398 23.0458 60.429 22.8756 60.4291 22.7052C60.4289 22.1431 60.5395 21.5865 60.7545 21.0671C60.9695 20.5478 61.2847 20.0759 61.6822 19.6785C62.0796 19.281 62.5515 18.9658 63.0709 18.7508C63.5902 18.5358 64.1468 18.4252 64.7089 18.4254C65.5858 18.4219 66.4421 18.6919 67.1584 19.1977L63.983 22.336Z" fill="white"/>
<path id="Vector_22" d="M89.2135 30.4715C88.1212 30.4027 87.0444 30.1769 86.0164 29.8012C85.0252 29.446 84.1022 28.9236 83.2873 28.2567C82.5121 27.6263 81.8892 26.8291 81.4648 25.9245L85.8357 24.0542C86.0604 24.3991 86.3406 24.7044 86.6651 24.9577C87.0771 25.2936 87.5394 25.5625 88.0351 25.7546C88.5935 25.9723 89.1887 26.0804 89.7881 26.0728C90.3111 26.0757 90.8316 26.0007 91.3325 25.8504C91.7809 25.7245 92.1901 25.487 92.5218 25.16C92.6767 24.9996 92.7976 24.8094 92.8772 24.6011C92.9568 24.3928 92.9935 24.1705 92.9851 23.9476C92.9955 23.7147 92.9507 23.4826 92.8543 23.2703C92.758 23.058 92.6128 22.8715 92.4307 22.7259C92.0273 22.416 91.5648 22.1921 91.0715 22.068C90.5279 21.9197 90.0027 21.7838 89.4961 21.6602C88.197 21.4068 86.9364 20.9853 85.7461 20.4061C84.6632 19.8957 83.712 19.1432 82.9661 18.2068C82.2649 17.3079 81.9143 16.2211 81.9143 14.9464C81.9143 13.544 82.286 12.3331 83.0294 11.3137C83.7756 10.2875 84.7756 9.47264 85.9315 8.94914C87.1464 8.39265 88.4687 8.10953 89.805 8.11976C91.4131 8.10212 93.0028 8.46239 94.4462 9.17155C95.8123 9.8342 96.9701 10.8595 97.7931 12.1354L93.6971 14.5556C93.4793 14.1936 93.1984 13.8734 92.8678 13.6104C92.5016 13.3128 92.0942 13.0699 91.6584 12.8891C91.2064 12.6993 90.7254 12.588 90.2359 12.5601C89.65 12.5274 89.0624 12.5847 88.4938 12.73C88.0124 12.8468 87.5739 13.0974 87.2288 13.4529C86.8985 13.8263 86.7273 14.314 86.7516 14.812C86.738 15.0513 86.7902 15.2897 86.9023 15.5015C87.0145 15.7133 87.1824 15.8904 87.3879 16.0136C87.8673 16.2962 88.3887 16.5005 88.9324 16.619C89.5327 16.7591 90.1098 16.9135 90.6638 17.0824C91.8781 17.4796 93.0546 17.9846 94.179 18.5913C95.2051 19.1265 96.1067 19.8723 96.8247 20.7799C97.4909 21.6448 97.8096 22.6786 97.7807 23.8812C97.8027 25.1893 97.3655 26.4638 96.5452 27.4829C95.705 28.5242 94.6116 29.3326 93.3697 29.8305C92.0552 30.3724 90.6302 30.5922 89.2135 30.4715Z" fill="#2D2E54"/>
<path id="Vector_23" d="M110.886 14.4374H106.765V30.5H101.58V14.4374H98.4355V9.25257H101.58V0.5H106.765V9.25257H110.886V14.4374Z" fill="#2D2E54"/>
<path id="Vector_24" d="M121.68 30.4993C119.791 30.5183 117.937 29.9951 116.336 28.9919C114.703 27.9664 113.36 26.5391 112.436 24.8463C111.511 23.1536 111.037 21.252 111.057 19.3235C111.033 16.3759 112.148 13.5328 114.169 11.3879C115.129 10.3688 116.281 9.54946 117.558 8.97699C119.07 8.3077 120.722 8.01579 122.372 8.12637C124.021 8.23694 125.62 8.7467 127.029 9.61178C128.634 10.6159 129.958 12.0122 130.875 13.6691C131.836 15.3959 132.33 17.344 132.308 19.3204C132.319 20.8055 132.037 22.2782 131.478 23.6542C130.944 24.9743 130.168 26.1831 129.191 27.2189C128.234 28.2367 127.086 29.056 125.812 29.6298C124.513 30.2138 123.104 30.5104 121.68 30.4993ZM121.68 25.3145C122.669 25.3273 123.639 25.0385 124.46 24.4867C125.285 23.9335 125.956 23.1806 126.411 22.2981C126.883 21.3674 127.127 20.338 127.123 19.2946C127.119 18.2512 126.868 17.2236 126.389 16.2963C125.924 15.41 125.24 14.6568 124.403 14.1078C123.587 13.5729 122.632 13.2888 121.656 13.2908C120.68 13.2927 119.727 13.5805 118.913 14.1186C118.084 14.6776 117.411 15.4382 116.957 16.3287C116.474 17.2526 116.226 18.2811 116.234 19.3235C116.223 20.3844 116.483 21.4307 116.99 22.363C117.457 23.2409 118.141 23.9851 118.976 24.5253C119.781 25.0463 120.721 25.3206 121.68 25.3145Z" fill="#2D2E54"/>
<path id="Vector_25" d="M133.748 30.5004L133.727 9.25295H138.91L138.931 11.1449C139.684 10.3537 140.591 9.72492 141.596 9.29727C142.6 8.86963 143.682 8.65218 144.774 8.65833C145.564 8.65931 146.349 8.77268 147.106 8.99503L145.068 14.22C144.438 13.9687 143.76 13.8639 143.085 13.9137C142.409 13.9635 141.753 14.1665 141.168 14.5073C140.492 14.9052 139.931 15.4707 139.538 16.1491C139.134 16.8411 138.924 17.6301 138.933 18.4318V30.5004H133.748Z" fill="#2D2E54"/>
<path id="Vector_26" d="M155.93 30.5008C154.041 30.52 152.186 29.9968 150.586 28.9934C148.98 27.9887 147.657 26.5919 146.74 24.9345C145.778 23.2149 145.284 21.2735 145.305 19.3033C145.288 16.3633 146.403 13.5295 148.419 11.3894C149.378 10.3699 150.53 9.55054 151.808 8.97846C153.18 8.37495 154.668 8.07844 156.167 8.10965C157.666 8.14087 159.14 8.49905 160.486 9.15917C161.855 9.84977 163.055 10.8326 164.003 12.0381C164.999 13.3033 165.727 14.7586 166.141 16.3148C166.556 17.8711 166.648 19.4956 166.412 21.0887H150.872C151.059 21.8564 151.391 22.5813 151.849 23.2248C152.313 23.8736 152.926 24.4019 153.636 24.7657C154.346 25.1295 155.132 25.3182 155.93 25.316C156.798 25.3401 157.656 25.1155 158.401 24.6688C159.151 24.2143 159.785 23.5927 160.254 22.8525L165.544 24.0881C164.7 25.9501 163.365 27.5474 161.683 28.7092C160.001 29.8948 157.988 30.5215 155.93 30.5008ZM150.703 17.2013H161.161C161.013 16.3672 160.675 15.5783 160.174 14.8954C159.683 14.2184 159.051 13.6566 158.321 13.249C157.595 12.8403 156.775 12.6274 155.942 12.6312C155.117 12.6248 154.304 12.8335 153.584 13.2366C152.857 13.6413 152.228 14.2001 151.74 14.8737C151.232 15.5664 150.878 16.3602 150.703 17.2013Z" fill="#2D2E54"/>
</g>
</g>
</g>
</g>
<defs>
<clipPath id="clip0_1_3">
<rect width="1920" height="1080" fill="white" transform="translate(-249 -23)"/>
</clipPath>
<clipPath id="clip1_1_3">
<rect width="165.687" height="30" fill="white" transform="translate(0.84375 0.5)"/>
</clipPath>
</defs>
</svg>
