<svg width="1073" height="195" viewBox="0 0 1073 195" fill="none" xmlns="http://www.w3.org/2000/svg">
<g clip-path="url(#clip0_2_2118)">
<path d="M73.19 49.25C86.0478 49.1008 98.7013 52.4726 109.78 59C120.626 65.3527 129.668 74.3713 136.05 85.2C142.575 96.2077 145.954 108.795 145.82 121.59C145.881 131.276 143.962 140.872 140.18 149.79C132.781 167.248 118.897 181.154 101.45 188.58C92.5158 192.376 82.8969 194.296 73.19 194.22C65.1652 194.374 57.2484 192.353 50.28 188.37C43.6987 184.541 38.0036 179.36 33.57 173.17V194.22H0V0H33.57V70.29C38.0091 64.1046 43.703 58.9251 50.28 55.09C57.2511 51.115 65.1667 49.0973 73.19 49.25ZM72.77 161.77C79.6444 161.849 86.3986 159.965 92.24 156.34C98.0471 152.751 102.861 147.762 106.24 141.83C111.48 132.651 112.949 121.796 110.337 111.555C107.725 101.313 101.236 92.4875 92.24 86.94C86.4007 83.3769 79.6803 81.5202 72.84 81.58C66.1788 81.4674 59.6369 83.3554 54.06 87C48.5433 90.6389 44.0834 95.6679 41.13 101.58C37.9888 107.775 36.3837 114.635 36.45 121.58C36.361 128.621 37.9661 135.58 41.13 141.87C44.0741 147.77 48.5372 152.778 54.06 156.38C59.627 159.986 66.1377 161.862 72.77 161.77Z" fill="white"/>
<path d="M271.83 0H305.39V194.24H271.83V173.47C267.428 179.613 261.748 184.731 255.18 188.47C248.082 192.43 240.056 194.425 231.93 194.25C222.288 194.323 212.735 192.403 203.87 188.61C186.506 181.152 172.668 167.314 165.21 149.95C161.487 141.063 159.57 131.525 159.57 121.89C159.57 112.255 161.487 102.717 165.21 93.83C172.675 76.4714 186.511 62.6354 203.87 55.17C212.735 51.3775 222.288 49.4574 231.93 49.53C240.047 49.3616 248.065 51.3308 255.18 55.24C261.779 58.9626 267.466 64.1069 271.83 70.3V0ZM232.35 161.91C239.074 162.042 245.686 160.176 251.35 156.55C256.87 152.933 261.326 147.911 264.26 142C267.341 135.705 268.942 128.789 268.942 121.78C268.942 114.771 267.341 107.855 264.26 101.56C261.305 95.6458 256.815 90.6344 251.26 87.05C245.62 83.4431 239.044 81.5755 232.35 81.68C225.51 81.6212 218.797 83.5191 213 87.15C207.106 90.8278 202.247 95.9481 198.883 102.027C195.519 108.105 193.761 114.942 193.775 121.889C193.789 128.836 195.575 135.665 198.963 141.73C202.352 147.795 207.231 152.896 213.14 156.55C218.909 160.115 225.569 161.974 232.35 161.91Z" fill="white"/>
<path d="M506.47 57.27H322.65V194.24H506.47V57.27Z" fill="white"/>
<path d="M322.65 57.27L343.88 29.65H368.78L355.73 57.27H322.65Z" fill="#F15A3A"/>
<path d="M401.6 29.65L397.17 57.27H355.73L368.78 29.65H401.6Z" fill="white"/>
<path d="M506.47 57.27L485.24 29.65H460.35L473.39 57.27H506.47Z" fill="#F15A3A"/>
<path d="M427.52 29.65L431.96 57.27H473.39L460.35 29.65H427.52Z" fill="white"/>
<path d="M431.95 57.27L427.52 29.65H401.6L397.17 57.27H431.95Z" fill="#F15A3A"/>
<path d="M473.39 59.4H506.47V82C506.47 83.5913 505.838 85.1174 504.713 86.2426C503.587 87.3678 502.061 88 500.47 88H479.4C477.809 88 476.283 87.3678 475.157 86.2426C474.032 85.1174 473.4 83.5913 473.4 82V59.4H473.39Z" fill="white"/>
<path d="M322.65 59.4H355.73V82C355.73 83.5913 355.098 85.1174 353.973 86.2426C352.847 87.3678 351.321 88 349.73 88H328.65C327.059 88 325.533 87.3678 324.407 86.2426C323.282 85.1174 322.65 83.5913 322.65 82V59.4Z" fill="white"/>
<path d="M397.17 59.4H432V82C432 83.5913 431.368 85.1174 430.243 86.2426C429.117 87.3678 427.591 88 426 88H403.17C401.579 88 400.053 87.3678 398.927 86.2426C397.802 85.1174 397.17 83.5913 397.17 82V59.4Z" fill="white"/>
<path d="M432 59.4H473.44V82C473.44 83.5913 472.808 85.1174 471.683 86.2426C470.557 87.3678 469.031 88 467.44 88H437.93C436.339 88 434.813 87.3678 433.687 86.2426C432.562 85.1174 431.93 83.5913 431.93 82V59.4H432Z" fill="white"/>
<path d="M355.73 59.4H397.17V82C397.17 83.5913 396.538 85.1174 395.413 86.2426C394.287 87.3678 392.761 88 391.17 88H361.72C360.129 88 358.603 87.3678 357.477 86.2426C356.352 85.1174 355.72 83.5913 355.72 82V59.4H355.73Z" fill="white"/>
<path d="M473.39 57.27H506.47V79.2C506.47 80.961 505.77 82.6499 504.525 83.8952C503.28 85.1404 501.591 85.84 499.83 85.84H480C478.239 85.84 476.55 85.1404 475.305 83.8952C474.06 82.6499 473.36 80.961 473.36 79.2V57.27H473.39Z" fill="#CA4B33"/>
<path d="M322.65 57.27H355.73V78.44C355.73 80.4026 354.95 82.2848 353.563 83.6726C352.175 85.0604 350.293 85.84 348.33 85.84H330C328.037 85.84 326.155 85.0604 324.767 83.6726C323.38 82.2848 322.6 80.4026 322.6 78.44V57.27H322.65Z" fill="#CA4B33"/>
<path d="M397.17 57.27H432V78.69C432 80.5863 431.247 82.4049 429.906 83.7458C428.565 85.0867 426.746 85.84 424.85 85.84H404.32C402.424 85.84 400.605 85.0867 399.264 83.7458C397.923 82.4049 397.17 80.5863 397.17 78.69V57.27Z" fill="#CA4B33"/>
<path d="M432 57.27H473.44V78.73C473.44 80.613 472.692 82.4189 471.36 83.7504C470.029 85.082 468.223 85.83 466.34 85.83H439.06C437.177 85.83 435.371 85.082 434.04 83.7504C432.708 82.4189 431.96 80.613 431.96 78.73V57.27H432Z" fill="#E0E1E0"/>
<path d="M355.73 57.27H397.17V78.27C397.17 80.2883 396.368 82.2239 394.941 83.6511C393.514 85.0782 391.578 85.88 389.56 85.88H363.34C362.341 85.88 361.351 85.6831 360.428 85.3007C359.504 84.9183 358.666 84.3577 357.959 83.6511C357.252 82.9444 356.692 82.1055 356.309 81.1822C355.927 80.2589 355.73 79.2693 355.73 78.27V57.27Z" fill="#E0E1E0"/>
<path d="M349.94 16.09H479.18C480.787 16.09 482.329 16.7285 483.465 17.8649C484.602 19.0014 485.24 20.5428 485.24 22.15V29.64H343.88V22.15C343.88 20.5428 344.518 19.0014 345.655 17.8649C346.791 16.7285 348.333 16.09 349.94 16.09Z" fill="#F15A3A"/>
<path d="M462.74 11.79H366.38C364.599 11.797 362.84 12.1842 361.221 12.9258C359.601 13.6673 358.159 14.7461 356.99 16.09H472.14C470.969 14.7459 469.525 13.667 467.904 12.9255C466.283 12.184 464.523 11.7969 462.74 11.79Z" fill="white"/>
<path d="M447 99.33L449.26 101.58L440.57 110.13C433.2 104.224 424.096 100.9 414.654 100.667C405.213 100.435 395.956 103.307 388.304 108.844C380.652 114.38 375.029 122.274 372.297 131.315C369.565 140.355 369.875 150.043 373.18 158.89L361.64 169.47L372 180.83L381.25 172.35C386.218 177.956 392.561 182.17 399.654 184.579C406.747 186.987 414.345 187.506 421.699 186.085C429.054 184.664 435.911 181.352 441.596 176.474C447.281 171.597 451.597 165.323 454.12 158.27L435.84 160.14C433.553 163.261 430.636 165.867 427.278 167.79C423.92 169.713 420.196 170.909 416.347 171.302C412.497 171.695 408.608 171.276 404.931 170.072C401.254 168.867 397.871 166.904 395 164.31C394.17 163.564 393.389 162.765 392.66 161.92L400.38 154.84L408.57 163.21L460.14 112.48L462.42 114.75L467.53 95.26L447 99.33ZM408.8 141.38L400.98 133.38L386 147.07C385.859 145.976 385.789 144.873 385.79 143.77C385.789 140.131 386.505 136.527 387.897 133.164C389.289 129.802 391.33 126.747 393.903 124.173C396.477 121.6 399.532 119.559 402.894 118.167C406.257 116.775 409.861 116.059 413.5 116.06C419.178 116.037 424.722 117.785 429.36 121.06L408.8 141.38Z" fill="#2D2E54"/>
<path d="M572.17 194.05C565.097 193.605 558.126 192.143 551.47 189.71C545.052 187.41 539.076 184.028 533.8 179.71C528.781 175.628 524.747 170.467 522 164.61L550.3 152.5C551.755 154.733 553.569 156.71 555.67 158.35C558.338 160.525 561.331 162.266 564.54 163.51C568.156 164.92 572.009 165.619 575.89 165.57C579.276 165.588 582.647 165.103 585.89 164.13C588.793 163.315 591.442 161.777 593.59 159.66C594.593 158.621 595.376 157.39 595.891 156.041C596.407 154.692 596.645 153.253 596.59 151.81C596.657 150.302 596.367 148.799 595.743 147.425C595.119 146.05 594.179 144.842 593 143.9C590.389 141.893 587.394 140.444 584.2 139.64C580.68 138.68 577.28 137.8 574 137C565.588 135.359 557.426 132.63 549.72 128.88C542.708 125.575 536.55 120.703 531.72 114.64C527.18 108.82 524.91 101.783 524.91 93.53C524.91 84.45 527.317 76.61 532.13 70.01C536.961 63.3651 543.436 58.0895 550.92 54.7C558.786 51.0969 567.348 49.2638 576 49.33C586.412 49.2158 596.705 51.5484 606.05 56.14C614.895 60.4305 622.391 67.0687 627.72 75.33L601.2 91C599.79 88.6559 597.971 86.5832 595.83 84.88C593.459 82.9535 590.822 81.3805 588 80.21C585.074 78.9809 581.959 78.2606 578.79 78.08C574.996 77.8679 571.192 78.2389 567.51 79.18C564.393 79.9362 561.554 81.5587 559.32 83.86C557.181 86.2778 556.072 89.4358 556.23 92.66C556.142 94.2092 556.48 95.7529 557.206 97.1241C557.932 98.4954 559.019 99.642 560.35 100.44C563.454 102.269 566.83 103.593 570.35 104.36C574.237 105.267 577.973 106.267 581.56 107.36C589.423 109.932 597.04 113.202 604.32 117.13C610.964 120.595 616.801 125.424 621.45 131.3C625.763 136.9 627.827 143.593 627.64 151.38C627.782 159.85 624.952 168.101 619.64 174.7C614.2 181.442 607.121 186.676 599.08 189.9C590.569 193.408 581.343 194.831 572.17 194.05Z" fill="white"/>
<path d="M712.48 90.24H685.8V194.24H652.23V90.24H631.87V56.67H652.23V0H685.8V56.67H712.48V90.24Z" fill="white"/>
<path d="M782.37 194.24C770.141 194.363 758.133 190.975 747.77 184.48C737.194 177.84 728.499 168.599 722.514 157.638C716.53 146.678 713.457 134.367 713.59 121.88C713.43 102.796 720.649 84.3875 733.74 70.5C739.953 63.9016 747.409 58.5965 755.68 54.89C765.469 50.5566 776.165 48.6665 786.847 49.3825C797.529 50.0984 807.876 53.3989 817 59C827.395 65.5011 835.965 74.5417 841.9 85.27C848.127 96.4505 851.326 109.063 851.18 121.86C851.254 131.476 849.429 141.011 845.81 149.92C842.351 158.467 837.328 166.294 831 173C824.803 179.59 817.368 184.895 809.12 188.61C800.713 192.391 791.588 194.312 782.37 194.24ZM782.37 160.67C788.775 160.753 795.054 158.883 800.37 155.31C805.709 151.728 810.054 146.854 813 141.14C816.054 135.114 817.634 128.449 817.609 121.693C817.585 114.937 815.957 108.284 812.86 102.28C809.846 96.5414 805.42 91.6648 800 88.11C794.716 84.6468 788.533 82.8077 782.215 82.8201C775.897 82.8326 769.721 84.696 764.45 88.18C759.085 91.7996 754.729 96.7239 751.79 102.49C748.664 108.472 747.057 115.131 747.11 121.88C747.038 128.749 748.721 135.523 752 141.56C755.027 147.244 759.453 152.062 764.86 155.56C770.074 158.933 776.16 160.71 782.37 160.67Z" fill="white"/>
<path d="M860.51 194.24L860.37 56.67H893.93L894.07 68.92C898.943 63.797 904.814 59.7258 911.32 56.9569C917.826 54.1881 924.829 52.7802 931.9 52.82C937.011 52.8264 942.096 53.5604 947 55L933.8 88.83C929.726 87.2027 925.335 86.5244 920.96 86.8467C916.585 87.1689 912.341 88.4833 908.55 90.69C904.177 93.2661 900.543 96.9276 898 101.32C895.379 105.801 894.024 110.909 894.08 116.1V194.24H860.51Z" fill="white"/>
<path d="M1004.13 194.24C991.9 194.364 979.892 190.977 969.53 184.48C959.134 177.975 950.565 168.931 944.63 158.2C938.403 147.066 935.2 134.496 935.34 121.74C935.229 102.705 942.448 84.3565 955.5 70.5C961.711 63.8994 969.168 58.594 977.44 54.89C986.326 50.9825 995.959 49.0627 1005.66 49.2648C1015.37 49.4668 1024.91 51.786 1033.63 56.06C1042.49 60.5315 1050.27 66.8946 1056.4 74.7C1062.85 82.8916 1067.56 92.3142 1070.25 102.391C1072.93 112.467 1073.53 122.985 1072 133.3H971.38C972.592 138.27 974.74 142.964 977.71 147.13C980.714 151.331 984.68 154.752 989.276 157.107C993.872 159.463 998.965 160.684 1004.13 160.67C1009.75 160.826 1015.3 159.372 1020.13 156.48C1024.98 153.537 1029.09 149.512 1032.13 144.72L1066.38 152.72C1060.91 164.775 1052.27 175.118 1041.38 182.64C1030.49 190.316 1017.46 194.374 1004.13 194.24ZM970.29 108.13H1038C1037.04 102.73 1034.85 97.622 1031.61 93.2C1028.43 88.8171 1024.34 85.1793 1019.61 82.54C1014.91 79.8939 1009.6 78.5154 1004.21 78.54C998.866 78.4989 993.603 79.8499 988.94 82.46C984.235 85.0804 980.159 88.6983 977 93.06C973.71 97.5448 971.421 102.684 970.29 108.13Z" fill="white"/>
</g>
<defs>
<clipPath id="clip0_2_2118">
<rect width="1072.77" height="194.24" fill="white"/>
</clipPath>
</defs>
</svg>
